<?xml version="1.0" standalone="no"?>
<!DOCTYPE svg PUBLIC "-//W3C//DTD SVG 20010904//EN"
 "http://www.w3.org/TR/2001/REC-SVG-20010904/DTD/svg10.dtd">
<svg version="1.0" xmlns="http://www.w3.org/2000/svg"
 width="200.000000pt" height="200.000000pt" viewBox="0 0 200.000000 200.000000"
 preserveAspectRatio="xMidYMid meet">

<g transform="translate(0.000000,200.000000) scale(0.100000,-0.100000)"
fill="#000000" stroke="none">
<path d="M80 1406 c-73 -193 -95 -380 -65 -561 18 -114 69 -274 72 -230 10
110 27 226 44 287 22 78 80 211 97 222 6 4 20 -25 35 -71 36 -113 37 -118 47
-237 5 -59 11 -110 14 -113 2 -3 38 13 79 36 70 38 75 43 80 80 3 22 16 65 30
95 26 56 84 136 98 136 5 0 11 -16 15 -36 5 -27 1 -48 -15 -81 -20 -41 -28
-83 -16 -83 19 0 87 45 126 83 33 33 60 49 94 58 37 9 44 14 31 21 -9 5 -41 9
-70 9 -48 0 -55 3 -60 23 -10 41 -43 70 -130 116 l-85 45 -35 -34 -34 -33 -28
53 c-45 91 -59 104 -182 173 -66 36 -122 66 -126 66 -4 0 -11 -11 -16 -24z"/>
<path d="M1323 1220 c0 -36 2 -50 4 -32 2 17 2 47 0 65 -2 17 -4 3 -4 -33z"/>
<path d="M1473 1195 c0 -22 2 -30 4 -17 2 12 2 30 0 40 -3 9 -5 -1 -4 -23z"/>
<path d="M1102 1185 c0 -16 2 -22 5 -12 2 9 2 23 0 30 -3 6 -5 -1 -5 -18z"/>
<path d="M1361 1174 c0 -11 3 -14 6 -6 3 7 2 16 -1 19 -3 4 -6 -2 -5 -13z"/>
<path d="M1023 1103 c-21 -4 -23 -10 -23 -79 0 -66 2 -75 18 -72 13 2 18 15
20 61 3 49 6 58 20 55 13 -2 18 -16 20 -61 3 -49 6 -58 20 -55 13 3 17 15 18
58 1 47 4 55 20 55 16 0 19 -9 22 -58 3 -49 6 -58 20 -55 14 3 17 15 17 65 0
82 -6 87 -90 82 -11 0 -29 1 -40 4 -11 3 -30 3 -42 0z"/>
<path d="M1265 1098 c-29 -16 -35 -28 -35 -70 0 -64 55 -97 111 -67 26 13 13
32 -16 25 -26 -7 -55 1 -55 14 0 5 17 10 37 12 31 2 39 8 47 31 8 21 6 31 -5
41 -21 21 -61 28 -84 14z m55 -43 c0 -9 -9 -15 -25 -15 -16 0 -25 6 -25 15 0
9 9 15 25 15 16 0 25 -6 25 -15z"/>
<path d="M1426 1101 c-26 -10 -32 -30 -28 -96 3 -38 8 -55 17 -55 10 0 15 17
17 58 3 56 3 57 36 60 37 4 43 27 10 36 -27 7 -27 7 -52 -3z"/>
<path d="M1550 1101 c-21 -6 -25 -13 -25 -41 0 -32 3 -36 38 -44 44 -11 44
-31 -1 -31 -36 0 -52 -12 -32 -25 23 -15 77 -12 94 6 32 32 17 65 -36 78 -39
9 -35 26 7 26 24 0 35 5 35 15 0 8 -6 15 -14 15 -8 0 -20 2 -28 4 -7 2 -24 1
-38 -3z"/>
<path d="M1666 1102 c-5 -8 13 -71 39 -135 5 -11 16 -17 29 -15 16 2 26 19 46
75 13 40 21 75 17 79 -12 12 -33 -14 -46 -57 -14 -46 -19 -45 -41 13 -15 41
-33 57 -44 40z"/>
<path d="M1870 1099 c-32 -13 -40 -26 -40 -71 0 -47 28 -78 70 -78 42 0 70 31
70 78 0 58 -48 91 -100 71z m58 -65 c3 -34 -17 -58 -41 -48 -40 15 -25 88 16
82 16 -2 23 -11 25 -34z"/>
</g>
</svg>
